#N canvas 94 23 1138 744 10;
#X msg 0 15 help;
#X msg 46 15 info;
#X obj 274 200 print;
#X msg 224 15 devices;
#X msg 149 15 close;
#X msg 89 15 open 4;
#X obj 89 93 sel 13 10;
#X obj 89 158 iem_alisttosym;
#X obj 89 183 fromsymbol;
#X obj 89 32 comport 4 115200;
#X floatatom 89 255 5 0 0 0 - - -;
#X floatatom 98 275 5 0 0 0 - - -;
#X floatatom 108 297 5 0 0 0 - - -;
#X floatatom 117 320 5 0 0 0 - - -;
#X floatatom 127 342 5 0 0 0 - - -;
#X floatatom 136 364 5 0 0 0 - - -;
#X floatatom 146 255 5 0 0 0 - - -;
#X floatatom 156 277 5 0 0 0 - - -;
#X floatatom 165 299 5 0 0 0 - - -;
#X floatatom 175 322 5 0 0 0 - - -;
#X floatatom 184 343 5 0 0 0 - - -;
#X floatatom 194 364 5 0 0 0 - - -;
#X floatatom 204 256 5 0 0 0 - - -;
#X floatatom 213 278 5 0 0 0 - - -;
#X floatatom 223 301 5 0 0 0 - - -;
#X floatatom 232 324 5 0 0 0 - - -;
#X floatatom 242 345 5 0 0 0 - - -;
#X floatatom 251 366 5 0 0 0 - - -;
#X floatatom 261 254 5 0 0 0 - - -;
#X floatatom 271 277 5 0 0 0 - - -;
#X floatatom 280 303 5 0 0 0 - - -;
#X floatatom 290 325 5 0 0 0 - - -;
#X floatatom 299 346 5 0 0 0 - - -;
#X floatatom 309 366 5 0 0 0 - - -;
#X floatatom 319 253 5 0 0 0 - - -;
#X floatatom 328 276 5 0 0 0 - - -;
#X floatatom 338 297 5 0 0 0 - - -;
#X floatatom 347 320 5 0 0 0 - - -;
#X floatatom 357 342 5 0 0 0 - - -;
#X floatatom 366 364 5 0 0 0 - - -;
#X floatatom 376 252 5 0 0 0 - - -;
#X floatatom 386 273 5 0 0 0 - - -;
#X floatatom 395 295 5 0 0 0 - - -;
#X floatatom 405 317 5 0 0 0 - - -;
#X floatatom 414 340 5 0 0 0 - - -;
#X obj 89 132 zl group 200;
#X obj 89 216 unpack f f f f f f f f f f f f f f f f f f f f f f f
f f f f f f f f f f f f f f;
#X floatatom 424 362 5 0 0 0 - - -;
#X obj 687 479 autoscale;
#X floatatom 642 549 5 0 0 0 - - -;
#X obj 616 472 split;
#X floatatom 136 480 5 0 0 0 - - -;
#X floatatom 194 481 5 0 0 0 - - -;
#X floatatom 251 481 5 0 0 0 - - -;
#X floatatom 309 481 5 0 0 0 - - -;
#X floatatom 366 481 5 0 0 0 - - -;
#X floatatom 424 481 5 0 0 0 - - -;
#X obj 136 457 < 900;
#X obj 194 457 < 900;
#X obj 251 457 < 900;
#X obj 309 457 < 900;
#X obj 366 457 < 900;
#X obj 424 457 < 900;
#X obj 139 606 hsl 330 15 220 261 0 0 empty empty empty -2 -8 0 10
-262144 -1 -1 838 1;
#X obj 136 506 sel 1;
#X msg 136 534 220;
#X floatatom 136 660 5 0 0 0 - - -;
#X obj 194 508 sel 1;
#X obj 251 507 sel 1;
#X obj 309 507 sel 1;
#X obj 366 506 sel 1;
#X obj 424 508 sel 1;
#X msg 251 534 232;
#X msg 309 534 238;
#X msg 366 534 244;
#X msg 424 534 250;
#X msg 194 534 226;
#X obj 536 370 spigot;
#X obj 722 331 expr;
#X obj 641 426 expr if($f1 < 900 \, 1 \, 0);
#X obj 144 399 expr if($f1 < 900 && $f2 < 900 \, $f1 - $f2 \, 0);
#X floatatom 148 426 5 0 0 0 - - -;
#X obj 85 430 sel 0;
#X obj 174 370 bng 15 250 50 0 empty empty empty 17 7 0 10 -262144
-1 -1;
#X obj 889 494 autoscale 0 900;
#X obj 498 445 m_scale 900 0 220 226;
#X obj 190 428 maxlib/scale -900 900 220 226;
#X floatatom 78 503 5 0 0 0 - - -;
#X connect 0 0 9 0;
#X connect 1 0 9 0;
#X connect 3 0 9 0;
#X connect 4 0 9 0;
#X connect 5 0 9 0;
#X connect 6 0 45 0;
#X connect 6 2 45 0;
#X connect 7 0 8 0;
#X connect 8 0 46 0;
#X connect 8 0 2 0;
#X connect 9 0 6 0;
#X connect 15 0 57 0;
#X connect 15 0 80 0;
#X connect 21 0 58 0;
#X connect 21 0 80 1;
#X connect 21 0 83 0;
#X connect 27 0 59 0;
#X connect 33 0 60 0;
#X connect 39 0 61 0;
#X connect 45 0 7 0;
#X connect 46 0 10 0;
#X connect 46 1 11 0;
#X connect 46 2 12 0;
#X connect 46 3 13 0;
#X connect 46 4 14 0;
#X connect 46 5 15 0;
#X connect 46 6 16 0;
#X connect 46 7 17 0;
#X connect 46 8 18 0;
#X connect 46 9 19 0;
#X connect 46 10 20 0;
#X connect 46 11 21 0;
#X connect 46 12 22 0;
#X connect 46 13 23 0;
#X connect 46 14 24 0;
#X connect 46 15 25 0;
#X connect 46 16 26 0;
#X connect 46 17 27 0;
#X connect 46 18 28 0;
#X connect 46 19 29 0;
#X connect 46 20 30 0;
#X connect 46 21 31 0;
#X connect 46 22 32 0;
#X connect 46 23 33 0;
#X connect 46 24 34 0;
#X connect 46 25 35 0;
#X connect 46 26 36 0;
#X connect 46 27 37 0;
#X connect 46 28 38 0;
#X connect 46 29 39 0;
#X connect 46 30 40 0;
#X connect 46 31 41 0;
#X connect 46 32 42 0;
#X connect 46 33 43 0;
#X connect 46 34 44 0;
#X connect 46 35 47 0;
#X connect 47 0 62 0;
#X connect 51 0 64 0;
#X connect 52 0 67 0;
#X connect 53 0 68 0;
#X connect 54 0 69 0;
#X connect 55 0 70 0;
#X connect 56 0 71 0;
#X connect 57 0 51 0;
#X connect 58 0 52 0;
#X connect 59 0 53 0;
#X connect 60 0 54 0;
#X connect 61 0 55 0;
#X connect 62 0 56 0;
#X connect 63 0 66 0;
#X connect 64 0 65 0;
#X connect 65 0 63 0;
#X connect 67 0 76 0;
#X connect 68 0 72 0;
#X connect 69 0 73 0;
#X connect 70 0 74 0;
#X connect 71 0 75 0;
#X connect 72 0 63 0;
#X connect 73 0 63 0;
#X connect 74 0 63 0;
#X connect 75 0 63 0;
#X connect 76 0 63 0;
#X connect 80 0 81 0;
#X connect 80 0 82 0;
#X connect 81 0 86 0;
#X connect 83 0 80 0;
#X connect 86 0 87 0;
#X connect 87 0 63 0;
