#N canvas 1 0 1276 778 10;
#X obj 214 210 print;
#X msg 164 25 devices;
#X msg 89 25 close;
#X msg 29 25 open 4;
#X obj 29 103 sel 13 10;
#X obj 29 168 iem_alisttosym;
#X obj 29 193 fromsymbol;
#X obj 29 42 comport 4 115200;
#X floatatom 29 265 5 0 0 0 - - -;
#X floatatom 38 285 5 0 0 0 - - -;
#X floatatom 48 307 5 0 0 0 - - -;
#X floatatom 57 330 5 0 0 0 - - -;
#X floatatom 67 352 5 0 0 0 - - -;
#X floatatom 76 374 5 0 0 0 - - -;
#X floatatom 86 265 5 0 0 0 - - -;
#X floatatom 96 287 5 0 0 0 - - -;
#X floatatom 105 309 5 0 0 0 - - -;
#X floatatom 115 332 5 0 0 0 - - -;
#X floatatom 124 353 5 0 0 0 - - -;
#X floatatom 134 374 5 0 0 0 - - -;
#X floatatom 144 266 5 0 0 0 - - -;
#X floatatom 153 288 5 0 0 0 - - -;
#X floatatom 163 311 5 0 0 0 - - -;
#X floatatom 172 334 5 0 0 0 - - -;
#X floatatom 182 355 5 0 0 0 - - -;
#X floatatom 191 376 5 0 0 0 - - -;
#X floatatom 201 264 5 0 0 0 - - -;
#X floatatom 211 287 5 0 0 0 - - -;
#X floatatom 220 313 5 0 0 0 - - -;
#X floatatom 230 335 5 0 0 0 - - -;
#X floatatom 239 356 5 0 0 0 - - -;
#X floatatom 249 376 5 0 0 0 - - -;
#X floatatom 259 263 5 0 0 0 - - -;
#X floatatom 268 286 5 0 0 0 - - -;
#X floatatom 278 307 5 0 0 0 - - -;
#X floatatom 287 330 5 0 0 0 - - -;
#X floatatom 297 352 5 0 0 0 - - -;
#X floatatom 306 374 5 0 0 0 - - -;
#X floatatom 316 262 5 0 0 0 - - -;
#X floatatom 326 283 5 0 0 0 - - -;
#X floatatom 335 305 5 0 0 0 - - -;
#X floatatom 345 327 5 0 0 0 - - -;
#X floatatom 354 350 5 0 0 0 - - -;
#X obj 29 142 zl group 200;
#X obj 29 226 unpack f f f f f f f f f f f f f f f f f f f f f f f
f f f f f f f f f f f f f f;
#X floatatom 364 372 5 0 0 0 - - -;
#X floatatom 76 590 5 0 0 0 - - -;
#X floatatom 134 591 5 0 0 0 - - -;
#X floatatom 191 591 5 0 0 0 - - -;
#X floatatom 249 591 5 0 0 0 - - -;
#X floatatom 306 591 5 0 0 0 - - -;
#X floatatom 364 591 5 0 0 0 - - -;
#X obj 76 567 < 900;
#X obj 134 567 < 900;
#X obj 191 567 < 900;
#X obj 249 567 < 900;
#X obj 306 567 < 900;
#X obj 364 567 < 900;
#X obj 79 696 hsl 330 15 220 261 0 0 empty empty empty -2 -8 0 10 -262144
-1 -1 0 1;
#X obj 76 616 sel 1;
#X msg 76 644 220;
#X floatatom 76 728 5 0 0 0 - - -;
#X obj 134 618 sel 1;
#X obj 191 617 sel 1;
#X obj 249 617 sel 1;
#X obj 306 616 sel 1;
#X obj 364 618 sel 1;
#X msg 191 644 232;
#X msg 249 644 238;
#X msg 306 644 244;
#X msg 364 644 250;
#X msg 134 644 226;
#X obj 18 468 expr if($f1 < 900 && $f2 < 900 \, $f1 - $f2 \, 0);
#X floatatom 18 489 5 0 0 0 - - -;
#X obj 42 445 bng 15 250 50 0 empty empty empty 17 7 0 10 -262144 -1
-1;
#X obj 18 509 maxlib/scale -900 900 220 226;
#X floatatom 18 563 5 0 0 0 - - -;
#X text 422 295 discret values from arduino (16 to 1024) each value
representing the individual pressure on crossings of columns and rows
in respective order (x- and y-axis);
#X text 390 444 first try to quantize two values into one. once the
pressure on the respective matrix crossings shifts \, it is meant to
calculate where the peak pressure is actually applied and represent
it as a float \, that can then be scaled to whatever range of pitch
is needed. (also featuring a threshhold of 900 to detect pressure in
the first place);
#X text 436 578 pressure detecting (threshold = 900) and pitch determination
in 6 steps. whereas it should not have any steps -.-;
#X text 123 728 pitch float;
#X connect 1 0 7 0;
#X connect 2 0 7 0;
#X connect 3 0 7 0;
#X connect 4 0 43 0;
#X connect 4 2 43 0;
#X connect 5 0 6 0;
#X connect 6 0 44 0;
#X connect 6 0 0 0;
#X connect 7 0 4 0;
#X connect 13 0 52 0;
#X connect 13 0 72 0;
#X connect 19 0 53 0;
#X connect 19 0 72 1;
#X connect 19 0 74 0;
#X connect 25 0 54 0;
#X connect 31 0 55 0;
#X connect 37 0 56 0;
#X connect 43 0 5 0;
#X connect 44 0 8 0;
#X connect 44 1 9 0;
#X connect 44 2 10 0;
#X connect 44 3 11 0;
#X connect 44 4 12 0;
#X connect 44 5 13 0;
#X connect 44 6 14 0;
#X connect 44 7 15 0;
#X connect 44 8 16 0;
#X connect 44 9 17 0;
#X connect 44 10 18 0;
#X connect 44 11 19 0;
#X connect 44 12 20 0;
#X connect 44 13 21 0;
#X connect 44 14 22 0;
#X connect 44 15 23 0;
#X connect 44 16 24 0;
#X connect 44 17 25 0;
#X connect 44 18 26 0;
#X connect 44 19 27 0;
#X connect 44 20 28 0;
#X connect 44 21 29 0;
#X connect 44 22 30 0;
#X connect 44 23 31 0;
#X connect 44 24 32 0;
#X connect 44 25 33 0;
#X connect 44 26 34 0;
#X connect 44 27 35 0;
#X connect 44 28 36 0;
#X connect 44 29 37 0;
#X connect 44 30 38 0;
#X connect 44 31 39 0;
#X connect 44 32 40 0;
#X connect 44 33 41 0;
#X connect 44 34 42 0;
#X connect 44 35 45 0;
#X connect 45 0 57 0;
#X connect 46 0 59 0;
#X connect 47 0 62 0;
#X connect 48 0 63 0;
#X connect 49 0 64 0;
#X connect 50 0 65 0;
#X connect 51 0 66 0;
#X connect 52 0 46 0;
#X connect 53 0 47 0;
#X connect 54 0 48 0;
#X connect 55 0 49 0;
#X connect 56 0 50 0;
#X connect 57 0 51 0;
#X connect 58 0 61 0;
#X connect 59 0 60 0;
#X connect 62 0 71 0;
#X connect 63 0 67 0;
#X connect 64 0 68 0;
#X connect 65 0 69 0;
#X connect 66 0 70 0;
#X connect 67 0 58 0;
#X connect 68 0 58 0;
#X connect 69 0 58 0;
#X connect 70 0 58 0;
#X connect 72 0 73 0;
#X connect 73 0 75 0;
#X connect 74 0 72 0;
#X connect 75 0 76 0;
#X connect 76 0 58 0;
